<svg width="976" height="554" viewBox="0 0 976 554" fill="none" xmlns="http://www.w3.org/2000/svg">
<path d="M23.1399 433V409.321L57.7969 403.509V134.864L20.5567 129.052V105.373H255.622L259.927 179.638H227.638L213.646 132.926L107.307 130.558V254.764L182.648 254.118L191.474 219.246H218.597V319.127H191.474L182.648 283.609L107.307 281.672V403.509L169.948 409.321V433H23.1399ZM446.989 437.951C422.736 437.951 401.066 433.861 381.98 425.681C363.037 417.358 346.964 405.949 333.761 391.455C320.559 376.96 310.441 359.74 303.41 339.792C296.521 319.845 293.077 298.175 293.077 274.783C293.077 247.947 297.526 223.838 306.423 202.456C315.321 181.073 327.375 162.919 342.587 147.995C357.799 133.07 375.522 121.661 395.757 113.768C416.135 105.732 437.804 101.713 460.765 101.713C472.246 101.713 483.296 102.287 493.915 103.436C504.535 104.44 514.294 105.732 523.191 107.31C532.232 108.745 540.125 110.252 546.87 111.831C553.758 113.409 559.14 114.629 563.014 115.49L558.924 190.831H527.281L514.796 141.752C513.361 140.317 511.28 138.81 508.553 137.231C505.97 135.509 502.454 133.931 498.005 132.496C493.557 131.061 487.888 129.913 481 129.052C474.255 128.047 465.932 127.545 456.03 127.545C440.531 127.545 426.252 130.343 413.193 135.94C400.133 141.393 388.868 149.717 379.397 160.91C369.925 171.96 362.535 185.88 357.225 202.671C351.915 219.318 349.26 238.835 349.26 261.222C349.26 280.021 351.269 298.462 355.287 316.544C359.306 334.482 365.476 350.555 373.8 364.762C382.123 378.97 392.671 390.45 405.443 399.204C418.215 407.814 433.427 412.12 451.079 412.12C457.249 412.12 463.492 411.833 469.806 411.259C476.264 410.685 482.435 409.68 488.319 408.245C494.203 406.81 499.656 404.944 504.679 402.648C509.845 400.352 514.15 397.482 517.594 394.038V301.045L465.286 296.094V267.464H592.29V296.094L567.319 300.83V415.564C561.579 415.851 554.834 417.214 547.085 419.654C539.336 421.95 530.51 424.461 520.608 427.188C510.706 429.915 499.656 432.354 487.458 434.507C475.26 436.803 461.77 437.951 446.989 437.951Z" fill="#112342"/>
<path d="M814.127 186.967C822.285 178.696 829.782 170.929 837.465 163.319C878.683 122.425 947.088 135.414 969.521 188.348C982.318 218.454 975.869 253.307 952.732 276.509C907.479 321.992 862.067 367.245 816.712 412.599C815.994 413.318 815.205 413.979 814.185 414.929C802.064 402.731 790.057 390.562 777.979 378.494C744.444 344.949 710.752 311.564 677.418 277.847C654.497 254.631 647.029 226.754 656.881 195.598C666.762 164.47 688.936 145.814 720.992 140.333C746.857 135.903 769.879 143.325 789.095 161.262C797.712 169.332 805.625 178.15 814.142 186.967" fill="#326398"/>
</svg>
