<svg width="573" height="337" viewBox="0 0 573 337" fill="none" xmlns="http://www.w3.org/2000/svg">
<path d="M3.13985 332V308.321L37.7969 302.509V33.8636L0.556721 28.0516V4.37288H235.622L239.927 78.6379H207.638L193.646 31.9263L87.3069 29.5584V153.764L162.648 153.118L171.474 118.246H198.597V218.127H171.474L162.648 182.609L87.3069 180.672V302.509L149.948 308.321V332H3.13985ZM426.989 336.951C402.736 336.951 381.066 332.861 361.98 324.681C343.037 316.358 326.964 304.949 313.761 290.455C300.559 275.96 290.441 258.74 283.41 238.792C276.521 218.845 273.077 197.175 273.077 173.783C273.077 146.947 277.526 122.838 286.423 101.456C295.321 80.073 307.375 61.9193 322.587 46.9945C337.799 32.0698 355.522 20.661 375.757 12.7681C396.135 4.73164 417.804 0.71344 440.765 0.71344C452.246 0.71344 463.296 1.28747 473.915 2.43553C484.535 3.44008 494.294 4.73164 503.191 6.31022C512.232 7.7453 520.125 9.25212 526.87 10.8307C533.758 12.4093 539.14 13.6291 543.014 14.4901L538.924 89.8315H507.281L494.796 40.752C493.361 39.3169 491.28 37.8101 488.553 36.2315C485.97 34.5094 482.454 32.9308 478.005 31.4958C473.557 30.0607 467.888 28.9126 461 28.0516C454.255 27.047 445.932 26.5448 436.03 26.5448C420.531 26.5448 406.252 29.3431 393.193 34.9399C380.133 40.3932 368.868 48.7166 359.397 59.9102C349.925 70.9603 342.535 84.8805 337.225 101.671C331.915 118.318 329.26 137.835 329.26 160.222C329.26 179.021 331.269 197.462 335.287 215.544C339.306 233.482 345.476 249.555 353.8 263.762C362.123 277.97 372.671 289.45 385.443 298.204C398.215 306.814 413.427 311.12 431.079 311.12C437.249 311.12 443.492 310.833 449.806 310.259C456.264 309.685 462.435 308.68 468.319 307.245C474.203 305.81 479.656 303.944 484.679 301.648C489.845 299.352 494.15 296.482 497.594 293.038V200.045L445.286 195.094V166.464H572.29V195.094L547.319 199.83V314.564C541.579 314.851 534.834 316.214 527.085 318.654C519.336 320.95 510.51 323.461 500.608 326.188C490.706 328.915 479.656 331.354 467.458 333.507C455.26 335.803 441.77 336.951 426.989 336.951Z" fill="#112342"/>
</svg>
