<svg width="1093" height="1102" viewBox="0 0 1093 1102" fill="none" xmlns="http://www.w3.org/2000/svg">
<path d="M1033.21 0H59.7931C26.7703 0 0 26.9907 0 60.2854V1041.71C0 1075.01 26.7703 1102 59.7931 1102H1033.21C1066.23 1102 1093 1075.01 1093 1041.71V60.2854C1093 26.9907 1066.23 0 1033.21 0Z" fill="url(#paint0_radial_218_3990)"/>
<path d="M848.528 471.192C855.969 463.648 862.808 456.562 869.817 449.621C907.415 412.319 969.812 424.167 990.275 472.452C1001.95 499.914 996.065 531.706 974.96 552.87C933.681 594.359 892.257 635.637 850.886 677.007C850.231 677.663 849.511 678.267 848.581 679.133C837.524 668.006 826.572 656.906 815.555 645.898C784.965 615.3 754.232 584.846 723.826 554.09C702.918 532.913 696.105 507.485 705.092 479.065C714.105 450.671 734.332 433.653 763.572 428.654C787.166 424.613 808.166 431.383 825.694 447.745C833.555 455.106 840.773 463.149 848.542 471.192" fill="#0066A2"/>
<path d="M157.876 421.792L123.292 416.966V396.859H338.434L342.456 465.222H316.317L304.253 420.585L200.904 417.77V534.39L273.691 533.183L280.527 499.806H301.84V593.906H280.929L273.691 558.92L200.904 557.311V671.92L263.637 675.941V695.646H125.705V675.941L157.876 671.92V421.792ZM511.811 700.069C482.858 700.069 457.791 693.635 436.612 680.767C415.701 667.899 399.75 650.205 388.758 627.685C377.766 604.897 372.27 579.161 372.27 550.475C372.27 517.5 378.705 489.216 391.573 465.624C404.709 442.032 422.805 424.204 445.861 412.14C468.917 399.808 495.19 393.642 524.68 393.642C551.757 393.642 582.99 397.797 618.377 406.108L614.758 475.678H586.207L576.555 427.421C572.802 424.472 566.368 421.658 557.253 418.977C548.406 416.296 536.476 414.955 521.463 414.955C501.892 414.955 484.6 419.781 469.587 429.432C454.574 439.083 442.778 453.426 434.199 472.461C425.888 491.495 421.733 514.551 421.733 541.628C421.733 566.56 425.084 589.348 431.786 609.991C438.757 630.634 449.212 647.256 463.153 659.856C477.362 672.188 494.654 678.354 515.029 678.354C527.897 678.354 540.095 676.88 551.623 673.931C563.151 670.714 571.998 666.558 578.164 661.464V571.788L527.495 567.767V544.041H644.918V567.767L621.595 571.386V679.561C615.697 679.829 605.911 682.107 592.239 686.397C578.298 690.686 565.162 694.037 552.829 696.45C540.497 698.863 526.825 700.069 511.811 700.069Z" fill="white"/>
<defs>
<radialGradient id="paint0_radial_218_3990" cx="0" cy="0" r="1" gradientUnits="userSpaceOnUse" gradientTransform="translate(546.492 550.992) scale(546.508 551.008)">
<stop stop-color="#2A3960"/>
<stop offset="1" stop-color="#1D2845"/>
</radialGradient>
</defs>
</svg>
