<?xml version="1.0" encoding="UTF-8"?>
<svg id="Layer_1" xmlns="http://www.w3.org/2000/svg" version="1.1" viewBox="0 0 178 11.9">
  <!-- Generator: Adobe Illustrator 29.8.2, SVG Export Plug-In . SVG Version: 2.1.1 Build 3)  -->
  <defs>
    <style>
      .st0 {
        fill: #0067a2;
      }

      .st1 {
        fill: #223256;
      }
    </style>
  </defs>
  <polygon class="st1" points="0 .3 0 1.1 1.3 1.3 1.3 10.5 .1 10.7 .1 11.5 5.1 11.5 5.1 10.7 3 10.5 3 6.3 5.5 6.4 5.8 7.6 6.8 7.6 6.8 4.2 5.8 4.2 5.5 5.4 3 5.4 3 1.1 6.6 1.2 7.1 2.8 8.2 2.8 8 .3 0 .3"/>
  <path class="st1" d="M14.6,11.6c-.8,0-1.5-.1-2.1-.4s-1.1-.7-1.5-1.2-.7-1.1-.9-1.8c-.2-.7-.3-1.5-.3-2.3s.1-1.7.4-2.4.6-1.3,1.1-1.8,1-.9,1.6-1.2c.6-.3,1.3-.4,2-.4s1.5.1,2.1.4,1.1.6,1.5,1.1.7,1.1.9,1.8c.2.7.3,1.5.3,2.3s-.1,1.7-.4,2.4c-.3.7-.6,1.3-1.1,1.8s-1,.9-1.6,1.2c-.6.4-1.3.5-2,.5M14.7,1c-.5,0-.9.1-1.3.3-.4.2-.7.5-1,.9s-.5.9-.6,1.5-.2,1.4-.2,2.2.1,1.4.2,2,.3,1.1.6,1.5c.3.4.6.7,1,1,.4.2.8.3,1.3.3s.9-.1,1.3-.3c.4-.2.7-.5,1-.9s.5-.9.6-1.6c.1-.6.2-1.4.2-2.2s-.1-1.4-.2-2-.3-1.1-.6-1.5c-.3-.4-.6-.7-1-1-.4,0-.8-.2-1.3-.2"/>
  <path class="st1" d="M25.1,11.6c-.4,0-.8,0-1.2-.1s-.7-.1-1-.2-.5-.2-.7-.2c-.3,0-.4,0-.6,0v-2.7h1.1l.3,1.8c0,.1.2.2.3.3,0,.1.3.2.5.2.2.1.4.1.6.1s.4.1.6.1c.7,0,1.3-.2,1.6-.5s.5-.8.5-1.3,0-.6-.2-.8c0-.2-.3-.4-.5-.6s-.5-.4-.8-.5c-.3-.2-.7-.3-1-.5-.3-.1-.6-.3-1-.5s-.7-.4-1-.7c-.3-.3-.5-.6-.7-1s-.3-.8-.3-1.3,0-.8.3-1.2c.2-.4.4-.7.7-.9.3-.3.7-.5,1.1-.6.4-.1.9-.2,1.5-.2s.7,0,1,.1c.3,0,.6.1.8.2.3.1.5.1.7.2s.3.1.5.1v2.5h-1.1l-.4-1.7s0-.1-.2-.1-.2-.1-.4-.1-.3-.1-.5-.1h-.5c-.7,0-1.2.1-1.5.4s-.5.7-.5,1.2,0,.5.2.7c0,.2.3.4.5.6s.5.4.8.5c.3.2.7.4,1.1.6.4.2.7.4,1.1.6.4.2.7.4,1,.7.3.3.5.6.7.9s.3.7.3,1.2,0,.8-.3,1.2c-.2.4-.4.7-.8,1-.3.3-.7.6-1.2.7-.2-.1-.8,0-1.4,0"/>
  <polygon class="st1" points="32.6 11.5 32.6 10.7 34.5 10.5 34.5 1.2 32.1 1.2 31.5 4.2 30.5 4.2 30.7 .3 40 .3 40.2 4.2 39.2 4.2 38.7 1.2 36.2 1.2 36.2 10.5 38.3 10.7 38.3 11.5 32.6 11.5"/>
  <polygon class="st1" points="41.8 11.5 41.8 10.7 43.1 10.5 43.1 1.3 41.9 1.1 41.9 .3 49.5 .3 49.7 2.6 48.7 2.6 48.2 1.2 44.8 1.1 44.8 5.3 47.2 5.2 47.4 4 48.4 4 48.4 7.4 47.4 7.4 47.2 6.2 44.8 6.2 44.8 10.5 48.8 10.4 49.6 8.6 50.6 8.8 50.1 11.5 41.8 11.5"/>
  <path class="st1" d="M62.1,11.5h-2.1c0,0-.3-.1-.4-.3s-.3-.5-.5-.8-.3-.7-.5-1.1-.4-.8-.5-1.1c-.2-.4-.4-.7-.6-1s-.4-.5-.6-.6h-1.8v3.9l1.4.2v.8h-4.3v-.8l1.2-.2V1.3l-1.1-.2V.3h4.4c.7,0,1.4.1,1.9.2s.9.3,1.2.6c.3.2.5.6.7.9s.2.8.2,1.3,0,.7,0,1-.2.6-.4.9c-.2.3-.4.5-.7.7-.3.2-.6.4-.9.5.2.1.4.3.6.6.2.2.4.5.6.8s.4.6.5.9c.2.3.3.6.5.9s.3.5.4.7.3.3.4.3l.6.2v.7h0ZM55.2,5.7h1.7c.6,0,1.1-.2,1.5-.6s.5-1,.5-1.8,0-.6,0-.9-.2-.5-.4-.7c-.2-.2-.4-.4-.7-.5-.3-.1-.7-.2-1.2-.2h-1.2v4.7h-.1Z"/>
  <path class="st1" d="M87.9,11.6c-.8,0-1.6-.1-2.2-.4-.7-.3-1.2-.7-1.7-1.2s-.8-1.1-1-1.8c-.2-.7-.4-1.4-.4-2.2s.2-1.7.5-2.5c.3-.7.7-1.4,1.2-1.9s1.1-.9,1.8-1.2c.7-.3,1.4-.4,2.2-.4s.8,0,1.1.1c.4,0,.7.1,1,.1.3.1.6.1.8.2.2.1.4.1.5.1v2.6h-1.2l-.4-1.7-.2-.2c0-.1-.2-.1-.4-.2-.2,0-.3-.1-.6-.1h-.9c-.5,0-1,.1-1.5.3-.4.2-.8.5-1.2.9-.3.4-.6.9-.8,1.4-.2.6-.3,1.2-.3,2s0,1.3.2,1.9.3,1.2.6,1.7c.3.5.6.9,1.1,1.2.4.3,1,.4,1.6.4h.6c.2,0,.4-.1.6-.1s.4-.1.6-.2.3-.2.4-.3v-3.1l-1.8-.2v-1h4.3v1l-.3.2v3.9c-.2,0-.4.1-.7.1-.3.1-.6.2-.9.3-.3.1-.7.2-1.1.3-.5,0-.9,0-1.5,0"/>
  <path class="st1" d="M104.4,11.5h-2.1c0,0-.3-.1-.4-.3s-.3-.5-.5-.8-.3-.7-.5-1.1-.4-.8-.5-1.1c-.2-.4-.4-.7-.6-1s-.4-.5-.6-.6h-1.8v3.9l1.4.2v.8h-4.3v-.8l1.2-.2V1.3l-1.1-.2V.3h4.4c.7,0,1.4.1,1.9.2s.9.3,1.2.6c.3.2.5.6.7.9,0,.4.2.8.2,1.3s0,.7,0,1-.2.6-.4.9c-.2.3-.4.5-.7.7-.3.2-.6.4-.9.5.2.1.4.3.6.6.2.2.4.5.6.8s.4.6.5.9c.2.3.3.6.5.9s.3.5.4.7.3.3.4.3l.6.2v.7h0ZM97.4,5.7h1.7c.6,0,1.1-.2,1.5-.6s.5-1,.5-1.8,0-.6,0-.9-.2-.5-.4-.7c-.2-.2-.4-.4-.7-.5-.3-.1-.7-.2-1.2-.2h-1.2v4.7h-.1Z"/>
  <polygon class="st1" points="105.6 11.5 105.6 10.7 106.9 10.5 106.9 1.3 105.7 1.1 105.7 .3 113.3 .3 113.5 2.6 112.5 2.6 112 1.2 108.6 1.1 108.6 5.3 111 5.2 111.2 4 112.2 4 112.2 7.4 111.2 7.4 111 6.2 108.6 6.2 108.6 10.5 112.6 10.4 113.4 8.6 114.4 8.8 113.9 11.5 105.6 11.5"/>
  <path class="st1" d="M115.1,11.5v-.8l.9-.2L119.7.2h1.7l3.6,10.3.9.2v.8h-4v-.8l1.2-.2-.7-2.1h-4.4l-.7,2.1,1.2.2v.8h-3.4ZM120,2.5l-1.6,4.9h3.8l-1.6-4.9-.3-1.2-.3,1.2Z"/>
  <polygon class="st1" points="128.7 11.5 128.7 10.7 130.6 10.5 130.6 1.2 128.2 1.2 127.7 4.2 126.6 4.2 126.8 .3 136.2 .3 136.4 4.2 135.3 4.2 134.8 1.2 132.4 1.2 132.4 10.5 134.4 10.7 134.4 11.5 128.7 11.5"/>
  <polygon class="st1" points="138 11.5 138 10.7 139.2 10.5 139.2 1.3 138 1.1 138 .3 140.8 .3 145.8 7.5 146.6 8.9 146.6 1.3 145.2 1.1 145.2 .3 148.9 .3 148.9 1.1 147.7 1.3 147.7 11.5 146.6 11.5 141.5 4.1 140.3 2.1 140.3 10.5 141.7 10.7 141.7 11.5 138 11.5"/>
  <polygon class="st1" points="150.6 11.5 150.6 10.7 151.9 10.5 151.9 1.3 150.7 1.1 150.7 .3 158.2 .3 158.4 2.6 157.5 2.6 157 1.2 153.6 1.1 153.6 5.3 155.9 5.2 156.2 4 157.2 4 157.2 7.4 156.2 7.4 155.9 6.2 153.6 6.2 153.6 10.5 157.6 10.4 158.4 8.6 159.4 8.8 158.9 11.5 150.6 11.5"/>
  <path class="st1" d="M164.7,11.6c-.4,0-.8,0-1.2-.1s-.7-.1-1-.2-.5-.2-.7-.2c-.2-.1-.4-.1-.5-.1v-2.7h1.1l.3,1.8c.1.1.2.2.3.3.1.1.3.2.5.2.2.1.4.1.6.1s.4.1.6.1c.7,0,1.3-.2,1.6-.5s.5-.8.5-1.3-.1-.6-.2-.8c-.1-.2-.3-.4-.5-.6s-.5-.4-.8-.5c-.3-.2-.7-.3-1-.5-.3-.1-.6-.3-1-.5-.3-.2-.7-.4-1-.7-.3-.3-.5-.6-.7-1s-.3-.8-.3-1.3.1-.8.3-1.2c.2-.4.4-.7.7-.9.3-.3.7-.5,1.1-.6.4-.1.9-.2,1.5-.2s.7,0,1,.1c.3,0,.6.1.8.2.3.1.5.1.7.2s.3.1.5.1v2.5h-1.1l-.4-1.7s-.1-.1-.2-.1c-.1-.1-.2-.1-.4-.1s-.3-.1-.5-.1h-.5c-.7,0-1.2.1-1.5.4s-.5.7-.5,1.2.1.5.2.7c.1.2.3.4.5.6s.5.4.8.5c.3.2.7.4,1.1.6.4.2.7.4,1.1.6.4.2.7.4,1,.7.3.3.5.6.7.9s.3.7.3,1.2-.1.8-.3,1.2c-.2.4-.4.7-.8,1-.3.3-.7.6-1.2.7-.3-.1-.8,0-1.5,0"/>
  <path class="st1" d="M174.2,11.6c-.4,0-.8,0-1.2-.1s-.7-.1-1-.2-.5-.2-.7-.2c-.2-.1-.4-.1-.5-.1v-2.7h1.1l.3,1.8c.1.1.2.2.3.3.1.1.3.2.5.2.2.1.4.1.6.1s.4.1.6.1c.7,0,1.3-.2,1.6-.5s.5-.8.5-1.3-.1-.6-.2-.8c-.1-.2-.3-.4-.5-.6s-.5-.4-.8-.5c-.3-.2-.7-.3-1-.5-.3-.1-.6-.3-1-.5-.3-.2-.7-.4-1-.7-.3-.3-.5-.6-.7-1s-.3-.8-.3-1.3.1-.8.3-1.2c.2-.4.4-.7.7-.9.3-.3.7-.5,1.1-.6.4-.1.9-.2,1.5-.2s.7,0,1,.1c.3,0,.6.1.8.2.3.1.5.1.7.2s.3.1.5.1v2.5h-1.1l-.4-1.7s-.1-.1-.2-.1c-.1-.1-.2-.1-.4-.1s-.3-.1-.5-.1h-.5c-.7,0-1.2.1-1.5.4s-.5.7-.5,1.2.1.5.2.7c.1.2.3.4.5.6s.5.4.8.5c.3.2.7.4,1.1.6.4.2.7.4,1.1.6.4.2.7.4,1,.7.3.3.5.6.7.9s.3.7.3,1.2-.1.8-.3,1.2c-.2.4-.4.7-.8,1-.3.3-.7.6-1.2.7-.3-.1-.8,0-1.5,0"/>
  <path class="st0" d="M71.9,3c.3-.3.6-.6.9-.9,1.6-1.6,4.3-1.1,5.2,1,.5,1.2.2,2.5-.7,3.4-1.8,1.8-3.5,3.5-5.3,5.3h0c-.5-.4-.9-.9-1.4-1.3-1.3-1.3-2.6-2.6-3.9-3.9-.9-.9-1.2-2-.8-3.2.4-1.2,1.3-1.9,2.5-2.2,1-.2,1.9.1,2.7.8.3.3.6.6.9,1"/>
</svg>