<svg width="324" height="276" viewBox="0 0 324 276" fill="none" xmlns="http://www.w3.org/2000/svg">
<path d="M162.127 47.9672C170.285 39.6962 177.782 31.9287 185.465 24.3194C226.683 -16.575 295.088 -3.58604 317.521 49.348C330.318 79.4543 323.869 114.307 300.732 137.509C255.479 182.992 210.067 228.245 164.712 273.599C163.994 274.318 163.205 274.979 162.185 275.929C150.064 263.731 138.057 251.562 125.979 239.494C92.4443 205.949 58.7517 172.564 25.4181 138.847C2.49683 115.631 -4.9713 87.754 4.88085 56.5977C14.7617 25.4702 36.9362 6.8138 68.9916 1.3334C94.8571 -3.09695 117.879 4.32533 137.095 22.2625C145.712 30.3321 153.625 39.1496 162.142 47.9672" fill="#326398"/>
</svg>
